<svg xmlns="http://www.w3.org/2000/svg" viewBox="0 90 720 960"><defs><radialGradient id="ambient"><stop stop-color="#f5f7e9"/><stop offset=".25" stop-color="#d7ad6b"/><stop offset="1" stop-color="#122039"/></radialGradient><linearGradient id="shade" x2="0" y2="1"><stop stop-color="#060c1c" stop-opacity=".05"/><stop offset=".35" stop-color="#060c1c" stop-opacity=".15"/><stop offset="1" stop-color="#060c1c" stop-opacity=".9"/></linearGradient></defs><rect width="720" height="1600" fill="#0b1222"/><path d="M0 0h720v210L530 110H190L0 210" fill="#171d2b"/><rect x="0" y="160" width="60" height="690" rx="30" fill="#1f2e43" stroke="#465368" stroke-width="3"/><rect x="110" y="160" width="60" height="690" rx="30" fill="#1f2e43" stroke="#465368" stroke-width="3"/><rect x="550" y="160" width="60" height="690" rx="30" fill="#1f2e43" stroke="#465368" stroke-width="3"/><rect x="660" y="160" width="60" height="690" rx="30" fill="#1f2e43" stroke="#465368" stroke-width="3"/><path d="M90 590 182 247q178-110 356 0l92 343-73 322H163Z" fill="#0b1929" stroke="#96784e" stroke-width="5"/><path d="m178 260 30-71h304l30 71Z" fill="#213347" stroke="#b69961" stroke-width="5"/><path d="M213 295h113v124H191Zm181 0h113l22 124H394Z" fill="#d5b478" opacity=".75"/><circle cx="360" cy="564" r="143" fill="#29384b" stroke="#b2935e" stroke-width="12"/><circle cx="360" cy="564" r="119" fill="#101d30" stroke="#5c6975" stroke-width="6"/><circle cx="360" cy="527" r="49" fill="url(#ambient)" stroke="#d3c09b" stroke-width="8"/><path d="m197 777-87 157h500l-87-157" fill="#243246" stroke="#786d5e" stroke-width="5"/><path d="m150 920 223 793" stroke="#0e1a29" stroke-width="15"/><path d="m202 920 257 793" stroke="#0e1a29" stroke-width="15"/><path d="m254 920 291 793" stroke="#0e1a29" stroke-width="15"/><path d="m306 920 324 793" stroke="#0e1a29" stroke-width="15"/><path d="m358 920 358 793" stroke="#0e1a29" stroke-width="15"/><path d="m410 920 392 793" stroke="#0e1a29" stroke-width="15"/><path d="m462 920 426 793" stroke="#0e1a29" stroke-width="15"/><path d="m514 920 460 793" stroke="#0e1a29" stroke-width="15"/><path d="m566 920 493 793" stroke="#0e1a29" stroke-width="15"/><path d="m618 920 527 793" stroke="#0e1a29" stroke-width="15"/><path d="M0 1080 240 940h240l240 140v520H0Z" fill="#091321"/><path d="M360 860 -700 1600" stroke="#2d4c5c" stroke-width="3"/><path d="M360 860 -260 1600" stroke="#2d4c5c" stroke-width="3"/><path d="M360 860 80 1600" stroke="#2d4c5c" stroke-width="3"/><path d="M360 860 640 1600" stroke="#2d4c5c" stroke-width="3"/><path d="M360 860 980 1600" stroke="#2d4c5c" stroke-width="3"/><path d="M360 860 1420 1600" stroke="#2d4c5c" stroke-width="3"/><path d="M0 1100h720" stroke="#213e50" stroke-width="2"/><path d="M0 1190h720" stroke="#213e50" stroke-width="2"/><path d="M0 1320h720" stroke="#213e50" stroke-width="2"/><path d="M0 1490h720" stroke="#213e50" stroke-width="2"/><rect width="720" height="1600" fill="url(#shade)"/></svg>